<?xml version="1.0" encoding="UTF-8" standalone="no"?>
<!DOCTYPE svg PUBLIC "-//W3C//DTD SVG 1.1//EN"
 "http://www.w3.org/Graphics/SVG/1.1/DTD/svg11.dtd">
<!-- Generated by graphviz version 2.40.1 (20161225.0304)
 -->
<!-- Title: G Pages: 1 -->
<svg width="152pt" height="260pt"
 viewBox="0.00 0.00 151.50 260.00" xmlns="http://www.w3.org/2000/svg" xmlns:xlink="http://www.w3.org/1999/xlink">
<g id="graph0" class="graph" transform="scale(1 1) rotate(0) translate(4 256)">
<title>G</title>
<polygon fill="#ffffff" stroke="transparent" points="-4,4 -4,-256 147.504,-256 147.504,4 -4,4"/>
<!-- a.yaml -->
<g id="node1" class="node">
<title>a.yaml</title>
<ellipse fill="none" stroke="#000000" cx="71.752" cy="-234" rx="33.8511" ry="18"/>
<text text-anchor="middle" x="71.752" y="-229.8" font-family="Times,serif" font-size="14.00" fill="#000000">a.yaml</text>
</g>
<!-- b.yaml -->
<g id="node2" class="node">
<title>b.yaml</title>
<ellipse fill="none" stroke="#000000" cx="40.752" cy="-162" rx="34.3442" ry="18"/>
<text text-anchor="middle" x="40.752" y="-157.8" font-family="Times,serif" font-size="14.00" fill="#000000">b.yaml</text>
</g>
<!-- a.yaml&#45;&gt;b.yaml -->
<g id="edge1" class="edge">
<title>a.yaml&#45;&gt;b.yaml</title>
<path fill="none" stroke="#000000" d="M64.0891,-216.2022C60.5603,-208.0064 56.2961,-198.1024 52.3833,-189.0145"/>
<polygon fill="#000000" stroke="#000000" points="55.4961,-187.3938 48.3268,-179.593 49.0667,-190.162 55.4961,-187.3938"/>
</g>
<!-- test_dir_2/c.yaml -->
<g id="node3" class="node">
<title>test_dir_2/c.yaml</title>
<ellipse fill="none" stroke="#000000" cx="71.752" cy="-90" rx="71.5048" ry="18"/>
<text text-anchor="middle" x="71.752" y="-85.8" font-family="Times,serif" font-size="14.00" fill="#000000">test_dir_2/c.yaml</text>
</g>
<!-- a.yaml&#45;&gt;test_dir_2/c.yaml -->
<g id="edge2" class="edge">
<title>a.yaml&#45;&gt;test_dir_2/c.yaml</title>
<path fill="none" stroke="#000000" d="M76.746,-216.1645C79.4107,-205.7193 82.4107,-192.2193 83.752,-180 85.4979,-164.0955 85.4979,-159.9045 83.752,-144 82.8236,-135.5425 81.1006,-126.4715 79.2442,-118.2246"/>
<polygon fill="#000000" stroke="#000000" points="82.6064,-117.2356 76.8711,-108.3273 75.7993,-118.8678 82.6064,-117.2356"/>
</g>
<!-- b.yaml&#45;&gt;test_dir_2/c.yaml -->
<g id="edge3" class="edge">
<title>b.yaml&#45;&gt;test_dir_2/c.yaml</title>
<path fill="none" stroke="#000000" d="M48.4149,-144.2022C51.891,-136.1287 56.0808,-126.3976 59.9453,-117.422"/>
<polygon fill="#000000" stroke="#000000" points="63.222,-118.6621 63.9619,-108.0931 56.7926,-115.8938 63.222,-118.6621"/>
</g>
<!-- test_dir_2/f.yaml -->
<g id="node4" class="node">
<title>test_dir_2/f.yaml</title>
<ellipse fill="none" stroke="#000000" cx="71.752" cy="-18" rx="70.5443" ry="18"/>
<text text-anchor="middle" x="71.752" y="-13.8" font-family="Times,serif" font-size="14.00" fill="#000000">test_dir_2/f.yaml</text>
</g>
<!-- test_dir_2/c.yaml&#45;&gt;test_dir_2/f.yaml -->
<g id="edge4" class="edge">
<title>test_dir_2/c.yaml&#45;&gt;test_dir_2/f.yaml</title>
<path fill="none" stroke="#000000" d="M71.752,-71.8314C71.752,-64.131 71.752,-54.9743 71.752,-46.4166"/>
<polygon fill="#000000" stroke="#000000" points="75.2521,-46.4132 71.752,-36.4133 68.2521,-46.4133 75.2521,-46.4132"/>
</g>
</g>
</svg>
