<?xml version="1.0" encoding="UTF-8" standalone="no"?>
<!DOCTYPE svg PUBLIC "-//W3C//DTD SVG 1.1//EN"
 "http://www.w3.org/Graphics/SVG/1.1/DTD/svg11.dtd">
<!-- Generated by graphviz version 2.40.1 (20161225.0304)
 -->
<!-- Title: G Pages: 1 -->
<svg width="362pt" height="188pt"
 viewBox="0.00 0.00 362.00 188.00" xmlns="http://www.w3.org/2000/svg" xmlns:xlink="http://www.w3.org/1999/xlink">
<g id="graph0" class="graph" transform="scale(1 1) rotate(0) translate(4 184)">
<title>G</title>
<polygon fill="#ffffff" stroke="transparent" points="-4,4 -4,-184 358.0006,-184 358.0006,4 -4,4"/>
<!-- a.yaml -->
<g id="node1" class="node">
<title>a.yaml</title>
<ellipse fill="none" stroke="#000000" cx="71.752" cy="-162" rx="33.8511" ry="18"/>
<text text-anchor="middle" x="71.752" y="-157.8" font-family="Times,serif" font-size="14.00" fill="#000000">a.yaml</text>
</g>
<!-- b.yaml -->
<g id="node2" class="node">
<title>b.yaml</title>
<ellipse fill="none" stroke="#000000" cx="40.752" cy="-90" rx="34.3442" ry="18"/>
<text text-anchor="middle" x="40.752" y="-85.8" font-family="Times,serif" font-size="14.00" fill="#000000">b.yaml</text>
</g>
<!-- a.yaml&#45;&gt;b.yaml -->
<g id="edge1" class="edge">
<title>a.yaml&#45;&gt;b.yaml</title>
<path fill="none" stroke="#000000" d="M64.0891,-144.2022C60.5603,-136.0064 56.2961,-126.1024 52.3833,-117.0145"/>
<polygon fill="#000000" stroke="#000000" points="55.4961,-115.3938 48.3268,-107.593 49.0667,-118.162 55.4961,-115.3938"/>
</g>
<!-- test_dir_2/c.yaml -->
<g id="node3" class="node">
<title>test_dir_2/c.yaml</title>
<ellipse fill="none" stroke="#000000" cx="71.752" cy="-18" rx="71.5048" ry="18"/>
<text text-anchor="middle" x="71.752" y="-13.8" font-family="Times,serif" font-size="14.00" fill="#000000">test_dir_2/c.yaml</text>
</g>
<!-- a.yaml&#45;&gt;test_dir_2/c.yaml -->
<g id="edge2" class="edge">
<title>a.yaml&#45;&gt;test_dir_2/c.yaml</title>
<path fill="none" stroke="#000000" d="M76.746,-144.1645C79.4107,-133.7193 82.4107,-120.2193 83.752,-108 85.4979,-92.0955 85.4979,-87.9045 83.752,-72 82.8236,-63.5425 81.1006,-54.4715 79.2442,-46.2246"/>
<polygon fill="#000000" stroke="#000000" points="82.6064,-45.2356 76.8711,-36.3273 75.7993,-46.8678 82.6064,-45.2356"/>
</g>
<!-- b.yaml&#45;&gt;test_dir_2/c.yaml -->
<g id="edge3" class="edge">
<title>b.yaml&#45;&gt;test_dir_2/c.yaml</title>
<path fill="none" stroke="#000000" d="M48.4149,-72.2022C51.891,-64.1287 56.0808,-54.3976 59.9453,-45.422"/>
<polygon fill="#000000" stroke="#000000" points="63.222,-46.6621 63.9619,-36.0931 56.7926,-43.8938 63.222,-46.6621"/>
</g>
<!-- e.yaml -->
<g id="node4" class="node">
<title>e.yaml</title>
<ellipse fill="none" stroke="#000000" cx="157.752" cy="-162" rx="33.8511" ry="18"/>
<text text-anchor="middle" x="157.752" y="-157.8" font-family="Times,serif" font-size="14.00" fill="#000000">e.yaml</text>
</g>
<!-- test_dir_2/d.yaml -->
<g id="node5" class="node">
<title>test_dir_2/d.yaml</title>
<ellipse fill="none" stroke="#000000" cx="281.752" cy="-162" rx="72.498" ry="18"/>
<text text-anchor="middle" x="281.752" y="-157.8" font-family="Times,serif" font-size="14.00" fill="#000000">test_dir_2/d.yaml</text>
</g>
</g>
</svg>
