<?xml version="1.0" encoding="UTF-8" standalone="no"?>
<!DOCTYPE svg PUBLIC "-//W3C//DTD SVG 1.1//EN"
 "http://www.w3.org/Graphics/SVG/1.1/DTD/svg11.dtd">
<!-- Generated by graphviz version 2.40.1 (20161225.0304)
 -->
<!-- Title: G Pages: 1 -->
<svg width="424pt" height="260pt"
 viewBox="0.00 0.00 424.00 260.00" xmlns="http://www.w3.org/2000/svg" xmlns:xlink="http://www.w3.org/1999/xlink">
<g id="graph0" class="graph" transform="scale(1 1) rotate(0) translate(4 256)">
<title>G</title>
<polygon fill="#ffffff" stroke="transparent" points="-4,4 -4,-256 420.0006,-256 420.0006,4 -4,4"/>
<!-- a.yaml -->
<g id="node1" class="node">
<title>a.yaml</title>
<ellipse fill="none" stroke="#000000" cx="133.752" cy="-234" rx="33.8511" ry="18"/>
<text text-anchor="middle" x="133.752" y="-229.8" font-family="Times,serif" font-size="14.00" fill="#000000">a.yaml</text>
</g>
<!-- b.yaml -->
<g id="node2" class="node">
<title>b.yaml</title>
<ellipse fill="none" stroke="#000000" cx="71.752" cy="-162" rx="34.3442" ry="18"/>
<text text-anchor="middle" x="71.752" y="-157.8" font-family="Times,serif" font-size="14.00" fill="#000000">b.yaml</text>
</g>
<!-- a.yaml&#45;&gt;b.yaml -->
<g id="edge1" class="edge">
<title>a.yaml&#45;&gt;b.yaml</title>
<path fill="none" stroke="#000000" d="M119.3721,-217.3008C111.4687,-208.1226 101.5189,-196.568 92.7606,-186.3971"/>
<polygon fill="#000000" stroke="#000000" points="95.2314,-183.9025 86.0539,-178.6087 89.927,-188.4702 95.2314,-183.9025"/>
</g>
<!-- test_dir_2/c.yaml -->
<g id="node3" class="node">
<title>test_dir_2/c.yaml</title>
<ellipse fill="none" stroke="#000000" cx="71.752" cy="-90" rx="71.5048" ry="18"/>
<text text-anchor="middle" x="71.752" y="-85.8" font-family="Times,serif" font-size="14.00" fill="#000000">test_dir_2/c.yaml</text>
</g>
<!-- a.yaml&#45;&gt;test_dir_2/c.yaml -->
<g id="edge2" class="edge">
<title>a.yaml&#45;&gt;test_dir_2/c.yaml</title>
<path fill="none" stroke="#000000" d="M132.4077,-215.9742C130.4574,-197.2275 125.7775,-167.4034 114.752,-144 109.9526,-133.8125 102.8829,-123.8282 95.8562,-115.2705"/>
<polygon fill="#000000" stroke="#000000" points="98.3831,-112.8409 89.2081,-107.5428 93.0765,-117.4061 98.3831,-112.8409"/>
</g>
<!-- test_dir_2/g.yaml -->
<g id="node4" class="node">
<title>test_dir_2/g.yaml</title>
<ellipse fill="none" stroke="#000000" cx="233.752" cy="-162" rx="72.498" ry="18"/>
<text text-anchor="middle" x="233.752" y="-157.8" font-family="Times,serif" font-size="14.00" fill="#000000">test_dir_2/g.yaml</text>
</g>
<!-- a.yaml&#45;&gt;test_dir_2/g.yaml -->
<g id="edge3" class="edge">
<title>a.yaml&#45;&gt;test_dir_2/g.yaml</title>
<path fill="none" stroke="#000000" d="M153.9885,-219.4297C167.6641,-209.5833 186.0103,-196.374 201.6597,-185.1064"/>
<polygon fill="#000000" stroke="#000000" points="203.9593,-187.7636 210.0296,-179.0801 199.8692,-182.0828 203.9593,-187.7636"/>
</g>
<!-- b.yaml&#45;&gt;test_dir_2/c.yaml -->
<g id="edge4" class="edge">
<title>b.yaml&#45;&gt;test_dir_2/c.yaml</title>
<path fill="none" stroke="#000000" d="M71.752,-143.8314C71.752,-136.131 71.752,-126.9743 71.752,-118.4166"/>
<polygon fill="#000000" stroke="#000000" points="75.2521,-118.4132 71.752,-108.4133 68.2521,-118.4133 75.2521,-118.4132"/>
</g>
<!-- test_dir_2/f.yaml -->
<g id="node5" class="node">
<title>test_dir_2/f.yaml</title>
<ellipse fill="none" stroke="#000000" cx="71.752" cy="-18" rx="70.5443" ry="18"/>
<text text-anchor="middle" x="71.752" y="-13.8" font-family="Times,serif" font-size="14.00" fill="#000000">test_dir_2/f.yaml</text>
</g>
<!-- test_dir_2/c.yaml&#45;&gt;test_dir_2/f.yaml -->
<g id="edge5" class="edge">
<title>test_dir_2/c.yaml&#45;&gt;test_dir_2/f.yaml</title>
<path fill="none" stroke="#000000" d="M71.752,-71.8314C71.752,-64.131 71.752,-54.9743 71.752,-46.4166"/>
<polygon fill="#000000" stroke="#000000" points="75.2521,-46.4132 71.752,-36.4133 68.2521,-46.4133 75.2521,-46.4132"/>
</g>
<!-- test_dir_2/h.yaml -->
<g id="node6" class="node">
<title>test_dir_2/h.yaml</title>
<ellipse fill="none" stroke="#000000" cx="233.752" cy="-90" rx="72.498" ry="18"/>
<text text-anchor="middle" x="233.752" y="-85.8" font-family="Times,serif" font-size="14.00" fill="#000000">test_dir_2/h.yaml</text>
</g>
<!-- test_dir_2/g.yaml&#45;&gt;test_dir_2/h.yaml -->
<g id="edge6" class="edge">
<title>test_dir_2/g.yaml&#45;&gt;test_dir_2/h.yaml</title>
<path fill="none" stroke="#000000" d="M233.752,-143.8314C233.752,-136.131 233.752,-126.9743 233.752,-118.4166"/>
<polygon fill="#000000" stroke="#000000" points="237.2521,-118.4132 233.752,-108.4133 230.2521,-118.4133 237.2521,-118.4132"/>
</g>
<!-- e.yaml -->
<g id="node7" class="node">
<title>e.yaml</title>
<ellipse fill="none" stroke="#000000" cx="219.752" cy="-234" rx="33.8511" ry="18"/>
<text text-anchor="middle" x="219.752" y="-229.8" font-family="Times,serif" font-size="14.00" fill="#000000">e.yaml</text>
</g>
<!-- test_dir_2/d.yaml -->
<g id="node8" class="node">
<title>test_dir_2/d.yaml</title>
<ellipse fill="none" stroke="#000000" cx="343.752" cy="-234" rx="72.498" ry="18"/>
<text text-anchor="middle" x="343.752" y="-229.8" font-family="Times,serif" font-size="14.00" fill="#000000">test_dir_2/d.yaml</text>
</g>
</g>
</svg>
